Coordinates
version=1
nRows=29
nColumns=24
inDegrees=yes

Units are S.I. units (second, meters, Newtons, ...)
Angles are in degrees.

endheader
time	pelvis_tilt	pelvis_list	pelvis_rotation	pelvis_tx	pelvis_ty	pelvis_tz	hip_flexion_r	hip_adduction_r	hip_rotation_r	knee_angle_r	ankle_angle_r	subtalar_angle_r	mtp_angle_r	hip_flexion_l	hip_adduction_l	hip_rotation_l	knee_angle_l	ankle_angle_l	subtalar_angle_l	mtp_angle_l	lumbar_extension	lumbar_bending	lumbar_rotation
      0.72550000	     -1.01604018	     -5.23890234	      6.67327117	     -0.47430660	      1.03119908	      0.33723070	     11.38699216	      9.52231008	     -4.07850710	    -14.31432359	      2.39702959	    -10.88055861	      5.35375254	     18.01118371	     -7.30591501	     -2.38176926	    -66.33357941	     -3.97350405	     -4.90738982	      2.26015076	     -4.19335003	      3.69183341	     -1.28986347
      0.72966667	     -1.00173626	     -5.12352077	      6.68400893	     -0.46907447	      1.03200396	      0.33735278	     10.89418889	      9.45103773	     -4.06750389	    -14.04624838	      2.60635593	    -10.72451874	      5.21793869	     18.50914007	     -7.16549725	     -2.40265385	    -65.98793985	     -3.21041875	     -5.08126300	     -0.63072610	     -4.21755221	      3.54898017	     -1.03956871
      0.73383333	     -0.99084576	     -5.04561201	      6.69847509	     -0.46382995	      1.03276940	      0.33748413	     10.39676012	      9.42219046	     -4.06011734	    -13.73583969	      2.66009659	    -10.66415889	      5.21746482	     19.00489364	     -7.07017885	     -2.42251280	    -65.58520127	     -2.55037141	     -5.31725886	     -0.62884331	     -4.25315221	      3.44518697	     -1.06867174
      0.73800000	     -0.93606989	     -4.94881171	      6.71189281	     -0.45860583	      1.03358417	      0.33763091	      9.84329944	      9.38355867	     -4.01579142	    -13.41559467	      2.77002566	    -10.58046585	      5.21388502	     19.42998583	     -6.95991182	     -2.44667208	    -65.10936003	     -1.91505780	     -5.46844253	     -0.65282301	     -4.37809946	      3.31309972	     -1.04056171
      0.74216667	     -0.92290272	     -4.84881873	      6.71217839	     -0.45338547	      1.03430336	      0.33777057	      9.34775234	      9.33333837	     -3.99261311	    -13.12321808	      2.86731658	    -10.51258923	      5.21177203	     19.88083505	     -6.83554348	     -2.48410926	    -64.57033974	     -1.35384578	     -5.73788074	     -0.66211212	     -4.42465005	      3.18022282	     -0.99835686
      0.74633333	     -0.83378279	     -4.72705351	      6.70303058	     -0.44818073	      1.03513795	      0.33791752	      8.75793775	      9.27204345	     -3.93890287	    -12.81206442	      3.00102063	    -10.39332572	      5.20182337	     20.21612645	     -6.69607335	     -2.53420627	    -63.94568345	     -0.85612016	     -5.97898475	     -0.70624558	     -4.59345848	      3.02426151	     -0.88039232
      0.75050000	     -0.77564912	     -4.60626286	      6.68438711	     -0.44297350	      1.03589371	      0.33806575	      8.20795637	      9.20694388	     -3.88764349	    -12.51366343	      3.11857744	    -10.29376026	      5.18784810	     20.56546386	     -6.55113703	     -2.58972206	    -63.26241054	     -0.39520805	     -6.26021205	     -0.75380779	     -4.71808801	      2.87637183	     -0.78287055
      0.75466667	     -0.72691133	     -4.49190012	      6.65882614	     -0.43776928	      1.03658513	      0.33822139	      7.67221226	      9.14777082	     -3.83798801	    -12.22184741	      3.24402774	    -10.19350360	      5.16859817	     20.90883815	     -6.41399842	     -2.65334353	    -62.52459233	      0.02476141	     -6.54645871	     -0.81063486	     -4.82118910	      2.72017789	     -0.67897426
      0.75883333	     -0.67045434	     -4.35341938	      6.61563825	     -0.43258725	      1.03728280	      0.33837977	      7.13425877	      9.06260702	     -3.76977522	    -11.94864754	      3.36345479	    -10.10227649	      5.15085815	     21.21022068	     -6.24724541	     -2.72792252	    -61.70994981	      0.42191854	     -6.83920916	     -0.85597411	     -4.95058347	      2.55857234	     -0.58943449
      0.76300000	     -0.60473430	     -4.24135192	      6.57817644	     -0.42739411	      1.03793330	      0.33854111	      6.57994176	      9.00908464	     -3.70117711	    -11.65304909	      3.49495157	    -10.00523237	      5.12337062	     21.49235581	     -6.11286091	     -2.79814807	    -60.84939087	      0.75794733	     -7.13573215	     -0.91862790	     -5.07750548	      2.39958299	     -0.46757400
      0.76716667	     -0.54458441	     -4.10342874	      6.51593057	     -0.42223154	      1.03856565	      0.33871059	      6.04600845	      8.92506664	     -3.61548723	    -11.39363967	      3.61483358	     -9.92381656	      5.09921024	     21.74587532	     -5.94728972	     -2.88578836	    -59.91524265	      1.10333021	     -7.42639822	     -0.96693946	     -5.21483671	      2.23671100	     -0.37205922
      0.77133333	     -0.47607092	     -3.97126217	      6.45086213	     -0.41706727	      1.03915990	      0.33888593	      5.50093115	      8.84854499	     -3.51855075	    -11.12710753	      3.74736977	     -9.84189750	      5.07088247	     21.97037383	     -5.79004326	     -2.97495188	    -58.92413945	      1.40002517	     -7.72016424	     -1.02006212	     -5.35823061	      2.06564066	     -0.25756071
      0.77550000	     -0.42173343	     -3.84872746	      6.37595360	     -0.41191037	      1.03969094	      0.33906642	      4.97736099	      8.78001697	     -3.41284646	    -10.87019279	      3.88016177	     -9.76684981	      5.03730299	     22.19211915	     -5.64078558	     -3.06389403	    -57.88118205	      1.66786372	     -8.00383366	     -1.07798500	     -5.48403873	      1.90679182	     -0.13086754
      0.77966667	     -0.35078291	     -3.72552455	      6.30036348	     -0.40676096	      1.04020562	      0.33925158	      4.43267006	      8.71298586	     -3.29868984	    -10.60273650	      4.02346420	     -9.68391298	      4.98598967	     22.37482014	     -5.49271038	     -3.15507300	    -56.77897565	      1.89199657	     -8.29142117	     -1.16030221	     -5.62566612	      1.74019423	      0.02511890
      0.78383333	     -0.30612323	     -3.60334371	      6.20588213	     -0.40163432	      1.04064577	      0.33943800	      3.93249357	      8.64114254	     -3.17016038	    -10.36757921	      4.15717061	     -9.61722682	      4.92028352	     22.56071090	     -5.34018206	     -3.24845726	    -55.61801168	      2.11709457	     -8.57346183	     -1.25742618	     -5.74591534	      1.58402427	      0.17364547
      0.78800000	     -0.25291201	     -3.48930344	      6.10497192	     -0.39650658	      1.04104488	      0.33962763	      3.42463828	      8.57753018	     -3.03582922	    -10.13317461	      4.29980372	     -9.56400661	      4.85983607	     22.71774533	     -5.20250068	     -3.35277436	    -54.40670667	      2.32655805	     -8.82595939	     -1.34407186	     -5.87166790	      1.43197297	      0.30543808
      0.79216667	     -0.19658535	     -3.37398382	      5.99439560	     -0.39139226	      1.04142387	      0.33981864	      2.91830866	      8.51118217	     -2.88835076	     -9.90588847	      4.43504620	     -9.51461709	      4.79124373	     22.84531653	     -5.06137484	     -3.45697765	    -53.13236786	      2.50723607	     -9.08048557	     -1.43870319	     -6.00390325	      1.28174248	      0.45388446
      0.79633333	     -0.15104501	     -3.26346551	      5.87385702	     -0.38629109	      1.04173434	      0.34000970	      2.43214733	      8.44621935	     -2.73069008	     -9.69403965	      4.57390638	     -9.47072636	      4.71551486	     22.96273462	     -4.92277366	     -3.56114674	    -51.80419535	      2.66559330	     -9.33214282	     -1.54159802	     -6.12999579	      1.13624256	      0.60819837
      0.80050000	     -0.12114576	     -3.15067963	      5.74369241	     -0.38118102	      1.04198983	      0.34020523	      1.96804877	      8.37435794	     -2.57194287	     -9.49396039	      4.72051526	     -9.42828832	      4.63767901	     23.07017295	     -4.78160465	     -3.67315294	    -50.41638694	      2.79268920	     -9.57482896	     -1.64765800	     -6.23052753	      0.98439744	      0.76015982
      0.80466667	     -0.13936864	     -3.05302687	      5.59781227	     -0.37609301	      1.04211937	      0.34041391	      1.57342873	      8.31122379	     -2.39916885	     -9.32520885	      4.86417212	     -9.40130102	      4.58515444	     23.21238679	     -4.65595798	     -3.79300283	    -48.98367336	      2.92538706	     -9.77502053	     -1.72110731	     -6.28146200	      0.84332044	      0.87048878
      0.80883333	     -0.11945967	     -2.95935545	      5.45495602	     -0.37099621	      1.04227229	      0.34059938	      1.12996285	      8.25375037	     -2.22529947	     -9.13742517	      5.00786891	     -9.36590605	      4.53033895	     23.28818615	     -4.53410972	     -3.90765763	    -47.49105958	      3.00655797	     -9.99930557	     -1.79989127	     -6.37029881	      0.71030715	      1.01591467
      0.81300000	     -0.07713559	     -2.87908726	      5.32414517	     -0.36589119	      1.04241931	      0.34075135	      0.65276612	      8.20989295	     -2.06241739	     -8.92295150	      5.15057615	     -9.32409323	      4.43427968	     23.31951972	     -4.41899467	     -4.00096141	    -45.94183861	      3.01685220	    -10.26571311	     -1.93446689	     -6.47423857	      0.60937485	      1.23569179
      0.81716667	     -0.10980961	     -2.80210387	      5.15964327	     -0.36080212	      1.04239590	      0.34094927	      0.28831830	      8.15900888	     -1.87976186	     -8.77751540	      5.29959160	     -9.30206782	      4.37930457	     23.40899007	     -4.31767955	     -4.13724022	    -44.35308304	      3.07849298	    -10.41732329	     -2.01581798	     -6.50701520	      0.48466118	      1.34045490
      0.82133333	     -0.09506464	     -2.74080088	      5.02188388	     -0.35569192	      1.04241188	      0.34107005	     -0.15035924	      8.12575423	     -1.71531972	     -8.57697112	      5.44126514	     -9.26336680	      4.26717327	     23.42533516	     -4.21589094	     -4.22872368	    -42.70249845	      3.03000745	    -10.68591987	     -2.17719358	     -6.57585761	      0.41326893	      1.56874878
      0.82550000	     -0.14468794	     -2.67931789	      4.84933635	     -0.35058782	      1.04228313	      0.34125132	     -0.48924535	      8.08428203	     -1.53141180	     -8.44453266	      5.59268089	     -9.24071561	      4.20844341	     23.48707039	     -4.13132471	     -4.38180758	    -41.01437871	      3.03352601	    -10.80687477	     -2.26768244	     -6.58425933	      0.30625616	      1.66564764
      0.82966667	     -0.14083905	     -2.64398472	      4.70836108	     -0.34547962	      1.04218961	      0.34133741	     -0.90590108	      8.07136201	     -1.36606622	     -8.25912497	      5.72072072	     -9.19084051	      4.06871896	     23.47389405	     -4.05050468	     -4.46721846	    -39.27356306	      2.94762695	    -11.04840562	     -2.47127489	     -6.63963330	      0.25633565	      1.89999795
      0.83383333	     -0.17418521	     -2.60438173	      4.54600241	     -0.34033274	      1.04200542	      0.34146097	     -1.27235642	      8.04867374	     -1.20201940	     -8.10314749	      5.89250246	     -9.16542296	      3.95655400	     23.47220788	     -3.98261047	     -4.62114967	    -37.48880783	      2.85967038	    -11.20591800	     -2.64149763	     -6.63935066	      0.19918110	      2.05688678
      0.83800000	     -0.24629247	     -2.58371564	      4.38549102	     -0.33519594	      1.04171297	      0.34154309	     -1.58878119	      8.03813139	     -1.03670865	     -7.95661433	      6.00716311	     -9.10836570	      3.76167736	     23.49628727	     -3.91937590	     -4.74659952	    -35.66772408	      2.76488528	    -11.34637592	     -2.92540814	     -6.61476702	      0.14949263	      2.25498330
      0.84216667	     -0.32084077	     -2.56826321	      4.21626178	     -0.33002628	      1.04135399	      0.34164428	     -1.89836786	      8.03349164	     -0.87144911	     -7.82634081	      6.19975450	     -9.09387800	      3.68997757	     23.50795890	     -3.88456008	     -4.96134335	    -33.82846082	      2.67935406	    -11.37378127	     -3.04138910	     -6.56994583	      0.12120153	      2.33407886
